<svg id="Phone" xmlns="http://www.w3.org/2000/svg" viewBox="0 0 429 872"><style>.st0{fill:#252525}.st1{fill:none;stroke:#fff;stroke-width:6;stroke-miterlimit:10}.st2{fill:#fff}.st3{opacity:.5}.st4{fill:#404040}.st5{fill:#1b1b1b}.st6{opacity:.7}.st7{fill:url(#SVGID_1_)}.st8{fill:url(#SVGID_2_)}.st9{fill:url(#SVGID_3_)}.st10{opacity:.5;fill:#404040}</style><path class="st0" d="M423 811c0 31.9-26.1 58-58 58H61c-31.9 0-58-26.1-58-58V61C3 29.1 29.1 3 61 3h304c31.9 0 58 26.1 58 58v750z"/><path class="st1" d="M423 811c0 31.9-26.1 58-58 58H61c-31.9 0-58-26.1-58-58V61C3 29.1 29.1 3 61 3h304c31.9 0 58 26.1 58 58v750z"/><path class="st2" d="M25.5 103.4h375v667h-375z"/><g class="st3"><path class="st4" d="M420 60h6v8h-6zM0 60h6v8H0z"/></g><g class="st3"><path class="st4" d="M420 804h6v8h-6zM0 804h6v8H0z"/></g><circle class="st5" cx="83" cy="38" r="8.5"/><g class="st6"><linearGradient id="SVGID_1_" gradientUnits="userSpaceOnUse" x1="83" y1="29.5" x2="83" y2="46.5"><stop offset="0" stop-color="#fff" stop-opacity="0"/><stop offset=".7" stop-color="#fff" stop-opacity="0"/><stop offset="1" stop-color="#fff"/></linearGradient><path class="st7" d="M83 30.5c4.1 0 7.5 3.4 7.5 7.5s-3.4 7.5-7.5 7.5-7.5-3.4-7.5-7.5 3.4-7.5 7.5-7.5m0-1c-4.7 0-8.5 3.8-8.5 8.5s3.8 8.5 8.5 8.5 8.5-3.8 8.5-8.5-3.8-8.5-8.5-8.5z"/></g><path class="st5" d="M257 38c0 2.2-1.8 4-4 4h-80c-2.2 0-4-1.8-4-4s1.8-4 4-4h80c2.2 0 4 1.8 4 4z"/><g class="st6"><linearGradient id="SVGID_2_" gradientUnits="userSpaceOnUse" x1="213" y1="34" x2="213" y2="42"><stop offset="0" stop-color="#fff" stop-opacity="0"/><stop offset=".7" stop-color="#fff" stop-opacity="0"/><stop offset="1" stop-color="#fff"/></linearGradient><path class="st8" d="M253 35c1.7 0 3 1.3 3 3s-1.3 3-3 3h-80c-1.7 0-3-1.3-3-3s1.3-3 3-3h80m0-1h-80c-2.2 0-4 1.8-4 4s1.8 4 4 4h80c2.2 0 4-1.8 4-4s-1.8-4-4-4z"/></g><path class="st5" d="M227.5 76c0 3.3-2.7 6-6 6h-18c-3.3 0-6-2.7-6-6s2.7-6 6-6h18c3.3 0 6 2.7 6 6z"/><g class="st6"><linearGradient id="SVGID_3_" gradientUnits="userSpaceOnUse" x1="212.5" y1="70" x2="212.5" y2="82"><stop offset="0" stop-color="#fff" stop-opacity="0"/><stop offset=".7" stop-color="#fff" stop-opacity="0"/><stop offset="1" stop-color="#fff"/></linearGradient><path class="st9" d="M221.5 71c2.8 0 5 2.2 5 5s-2.2 5-5 5h-18c-2.8 0-5-2.2-5-5s2.2-5 5-5h18m0-1h-18c-3.3 0-6 2.7-6 6s2.7 6 6 6h18c3.3 0 6-2.7 6-6s-2.7-6-6-6z"/></g><path class="st0" d="M428 283h-2v-64h2c.6 0 1 .4 1 1v62c0 .6-.4 1-1 1zm-2 192h2c.6 0 1-.4 1-1V356c0-.6-.4-1-1-1h-2v120z"/><path transform="rotate(-90 324.5 3)" class="st10" d="M321.5-1h6v8h-6z"/></svg>