<svg id="Phone" xmlns="http://www.w3.org/2000/svg" viewBox="0 0 432 872"><style>.st0{fill:#252525}.st1{fill:none;stroke:#fff;stroke-width:6;stroke-miterlimit:10}.st2{fill:#fff}.st3{opacity:.3}.st4{fill:url(#SVGID_1_)}.st5{opacity:.5}.st6{fill:#404040}.st7{fill:#1b1b1b}.st8{opacity:.7}.st9{fill:url(#SVGID_2_)}.st10{fill:url(#SVGID_3_)}.st11{fill:url(#SVGID_4_)}</style><path class="st0" d="M426 813c0 30.8-25.2 56-56 56H62c-30.8 0-56-25.2-56-56V59C6 28.2 31.2 3 62 3h308c30.8 0 56 25.2 56 56v754z"/><path class="st1" d="M426 813c0 30.8-25.2 56-56 56H62c-30.8 0-56-25.2-56-56V59C6 28.2 31.2 3 62 3h308c30.8 0 56 25.2 56 56v754z"/><path class="st2" d="M28.5 103.4h375v667h-375z"/><circle class="st0" cx="216" cy="815" r="26"/><g class="st3"><linearGradient id="SVGID_1_" gradientUnits="userSpaceOnUse" x1="216" y1="786" x2="216" y2="844"><stop offset="0" stop-color="#b4b5ba" stop-opacity="0"/><stop offset=".1" stop-color="#b4b5ba" stop-opacity="0"/><stop offset=".232" stop-color="#b4b5ba" stop-opacity=".146"/><stop offset="1" stop-color="#b4b5ba"/></linearGradient><path class="st4" d="M216 789c14.4 0 26 11.6 26 26s-11.6 26-26 26-26-11.6-26-26 11.6-26 26-26m0-3c-16 0-29 13-29 29s13 29 29 29 29-13 29-29-13-29-29-29z"/></g><g class="st5"><path class="st6" d="M423 60h6v16h-6zM3 60h6v16H3z"/></g><g class="st5"><path class="st6" d="M423 796h6v16h-6zM3 796h6v16H3z"/></g><circle class="st7" cx="216" cy="33.5" r="3.5"/><g class="st8"><linearGradient id="SVGID_2_" gradientUnits="userSpaceOnUse" x1="216" y1="30" x2="216" y2="37"><stop offset="0" stop-color="#fff" stop-opacity="0"/><stop offset=".7" stop-color="#fff" stop-opacity="0"/><stop offset="1" stop-color="#fff"/></linearGradient><path class="st9" d="M216 31c1.4 0 2.5 1.1 2.5 2.5S217.4 36 216 36s-2.5-1.1-2.5-2.5 1.1-2.5 2.5-2.5m0-1c-1.9 0-3.5 1.6-3.5 3.5s1.6 3.5 3.5 3.5 3.5-1.6 3.5-3.5-1.6-3.5-3.5-3.5z"/></g><circle class="st7" cx="146.5" cy="59" r="7.5"/><g class="st8"><linearGradient id="SVGID_3_" gradientUnits="userSpaceOnUse" x1="146.5" y1="51.5" x2="146.5" y2="66.5"><stop offset="0" stop-color="#fff" stop-opacity="0"/><stop offset=".7" stop-color="#fff" stop-opacity="0"/><stop offset="1" stop-color="#fff"/></linearGradient><path class="st10" d="M146.5 52.5c3.6 0 6.5 2.9 6.5 6.5s-2.9 6.5-6.5 6.5-6.5-2.9-6.5-6.5 2.9-6.5 6.5-6.5m0-1c-4.1 0-7.5 3.4-7.5 7.5s3.4 7.5 7.5 7.5 7.5-3.4 7.5-7.5-3.4-7.5-7.5-7.5z"/></g><path class="st7" d="M254 59c0 2.2-1.8 4-4 4h-68c-2.2 0-4-1.8-4-4s1.8-4 4-4h68c2.2 0 4 1.8 4 4z"/><g class="st8"><linearGradient id="SVGID_4_" gradientUnits="userSpaceOnUse" x1="216" y1="55" x2="216" y2="63"><stop offset="0" stop-color="#fff" stop-opacity="0"/><stop offset=".7" stop-color="#fff" stop-opacity="0"/><stop offset="1" stop-color="#fff"/></linearGradient><path class="st11" d="M250 56c1.7 0 3 1.3 3 3s-1.3 3-3 3h-68c-1.7 0-3-1.3-3-3s1.3-3 3-3h68m0-1h-68c-2.2 0-4 1.8-4 4s1.8 4 4 4h68c2.2 0 4-1.8 4-4s-1.8-4-4-4z"/></g><path class="st0" d="M431 244h-2v-64h2c.6 0 1 .4 1 1v62c0 .6-.4 1-1 1zM3 244H1c-.6 0-1-.4-1-1v-62c0-.6.4-1 1-1h2v64zm0 88H1c-.6 0-1-.4-1-1v-62c0-.6.4-1 1-1h2v64zm0-192H1c-.6 0-1-.4-1-1v-30c0-.6.4-1 1-1h2v32z"/></svg>